<svg width="32" height="32" viewBox="0 0 32 32" fill="none" xmlns="http://www.w3.org/2000/svg">
<path d="M8.5 16H9.33333M16 8.5V9.33333M22.6667 16H23.5M16 22.6667V23.5M10.6667 10.6667L11.25 11.25M21.3333 10.6667L20.75 11.25M20.75 20.75L21.3333 21.3333M11.25 20.75L10.6667 21.3333M12.6667 16C12.6667 16.8841 13.0179 17.7319 13.643 18.357C14.2681 18.9821 15.1159 19.3333 16 19.3333C16.8841 19.3333 17.7319 18.9821 18.357 18.357C18.9821 17.7319 19.3333 16.8841 19.3333 16C19.3333 15.1159 18.9821 14.2681 18.357 13.643C17.7319 13.0179 16.8841 12.6667 16 12.6667C15.1159 12.6667 14.2681 13.0179 13.643 13.643C13.0179 14.2681 12.6667 15.1159 12.6667 16Z" stroke="#A3A3A3" stroke-width="1.5" stroke-linecap="round" stroke-linejoin="round"/>
</svg>
